<svg xmlns="http://www.w3.org/2000/svg" viewBox="95 78 415 300">

  <!-- Coat tails (behind legs) -->
  <path d="M143,270 L133,318 L160,316 L156,270 Z" fill="#C41E3A"/>
  <path d="M184,270 L180,316 L207,318 L197,270 Z" fill="#C41E3A"/>
  <line x1="148" y1="278" x2="143" y2="312" stroke="#A91A30" stroke-width="1"/>
  <line x1="191" y1="278" x2="197" y2="312" stroke="#A91A30" stroke-width="1"/>

  <!-- Legs (white stockings) -->
  <rect x="140" y="286" width="24" height="68" rx="8" fill="#F8F8F8"/>
  <rect x="176" y="286" width="24" height="68" rx="8" fill="#F8F8F8"/>
  <rect x="140" y="286" width="24" height="5" rx="2" fill="#E8E8E8"/>
  <rect x="176" y="286" width="24" height="5" rx="2" fill="#E8E8E8"/>

  <!-- Shoes -->
  <path d="M165,350 L135,350 L127,358 Q123,368 128,370 L162,370 Q166,370 166,364 Z" fill="#1E1E1E"/>
  <path d="M175,350 L205,350 L213,358 Q217,368 212,370 L178,370 Q174,370 174,364 Z" fill="#1E1E1E"/>
  <rect x="140" y="354" width="11" height="8" rx="2" fill="none" stroke="#C8A951" stroke-width="1.5"/>
  <rect x="143" y="356" width="5" height="4" rx="0.5" fill="#C8A951"/>
  <rect x="182" y="354" width="11" height="8" rx="2" fill="none" stroke="#C8A951" stroke-width="1.5"/>
  <rect x="185" y="356" width="5" height="4" rx="0.5" fill="#C8A951"/>

  <!-- Coat body -->
  <rect x="127" y="192" width="86" height="96" rx="8" fill="#C41E3A"/>
  <!-- Shoulder epaulettes -->
  <ellipse cx="131" cy="196" rx="10" ry="5" fill="#A91A30"/>
  <ellipse cx="209" cy="196" rx="10" ry="5" fill="#A91A30"/>

  <!-- Left arm (on hip) -->
  <path d="M130,212 L112,242 L128,262" stroke="#C41E3A" stroke-width="22" stroke-linecap="round" stroke-linejoin="round" fill="none"/>
  <ellipse cx="127" cy="260" rx="12" ry="9" fill="#FFFFFF"/>
  <ellipse cx="128" cy="260" rx="9" ry="7" fill="#F0C8A0"/>

  <!-- Vest (V-opening) -->
  <path d="M157,192 L148,240 L170,288 L192,240 L183,192 Z" fill="#D4A017"/>
  <path d="M157,192 L148,240" stroke="#A91A30" stroke-width="2.5" stroke-linecap="round"/>
  <path d="M183,192 L192,240" stroke="#A91A30" stroke-width="2.5" stroke-linecap="round"/>

  <!-- Vest buttons -->
  <circle cx="170" cy="218" r="4" fill="#8A6D0D"/>
  <circle cx="170" cy="218" r="2" fill="#BF9B15"/>
  <circle cx="170" cy="242" r="4" fill="#8A6D0D"/>
  <circle cx="170" cy="242" r="2" fill="#BF9B15"/>
  <circle cx="170" cy="266" r="4" fill="#8A6D0D"/>
  <circle cx="170" cy="266" r="2" fill="#BF9B15"/>

  <!-- Jabot ruffle -->
  <ellipse cx="170" cy="193" rx="20" ry="10" fill="#FFFFFF"/>
  <ellipse cx="162" cy="197" rx="11" ry="8" fill="#F5F5F5"/>
  <ellipse cx="178" cy="197" rx="11" ry="8" fill="#F5F5F5"/>
  <ellipse cx="170" cy="200" rx="8" ry="6" fill="#FAFAFA"/>
  <ellipse cx="170" cy="195" rx="6" ry="3.5" fill="#FFFFFF"/>

  <!-- Right arm (raised) -->
  <path d="M210,210 C232,198 252,172 260,148" stroke="#C41E3A" stroke-width="22" stroke-linecap="round" fill="none"/>

  <!-- Accordion catalog -->
  <g>
    <!-- Panel 1 -->
    <polygon points="266,118 300,115 300,168 266,171" fill="#FFF8E7" stroke="#D4C5A0" stroke-width="0.5"/>
    <line x1="273" y1="127" x2="294" y2="125" stroke="#C8B89A" stroke-width="0.8"/>
    <line x1="273" y1="134" x2="291" y2="132" stroke="#C8B89A" stroke-width="0.8"/>
    <line x1="273" y1="141" x2="294" y2="139" stroke="#C8B89A" stroke-width="0.8"/>
    <line x1="273" y1="148" x2="288" y2="146" stroke="#C8B89A" stroke-width="0.8"/>
    <line x1="273" y1="155" x2="293" y2="153" stroke="#C8B89A" stroke-width="0.8"/>
    <circle cx="270" cy="127" r="2" fill="#C41E3A"/>
    <circle cx="270" cy="141" r="2" fill="#D4A017"/>
    <circle cx="270" cy="155" r="2" fill="#C41E3A"/>
    <line x1="300" y1="115" x2="300" y2="168" stroke="#BAA878" stroke-width="1.5"/>

    <!-- Panel 2 -->
    <polygon points="300,115 334,118 334,171 300,168" fill="#FFF2D9" stroke="#D4C5A0" stroke-width="0.5"/>
    <line x1="307" y1="124" x2="328" y2="127" stroke="#C8B89A" stroke-width="0.8"/>
    <line x1="307" y1="131" x2="325" y2="134" stroke="#C8B89A" stroke-width="0.8"/>
    <line x1="307" y1="138" x2="328" y2="141" stroke="#C8B89A" stroke-width="0.8"/>
    <line x1="307" y1="145" x2="322" y2="148" stroke="#C8B89A" stroke-width="0.8"/>
    <line x1="307" y1="152" x2="327" y2="155" stroke="#C8B89A" stroke-width="0.8"/>
    <circle cx="304" cy="125" r="2" fill="#D4A017"/>
    <circle cx="304" cy="139" r="2" fill="#C41E3A"/>
    <circle cx="304" cy="153" r="2" fill="#D4A017"/>
    <line x1="334" y1="118" x2="334" y2="171" stroke="#BAA878" stroke-width="1.5"/>

    <!-- Panel 3 -->
    <polygon points="334,118 368,115 368,168 334,171" fill="#FFF8E7" stroke="#D4C5A0" stroke-width="0.5"/>
    <line x1="341" y1="127" x2="362" y2="125" stroke="#C8B89A" stroke-width="0.8"/>
    <line x1="341" y1="134" x2="359" y2="132" stroke="#C8B89A" stroke-width="0.8"/>
    <line x1="341" y1="141" x2="362" y2="139" stroke="#C8B89A" stroke-width="0.8"/>
    <line x1="341" y1="148" x2="356" y2="146" stroke="#C8B89A" stroke-width="0.8"/>
    <line x1="341" y1="155" x2="361" y2="153" stroke="#C8B89A" stroke-width="0.8"/>
    <circle cx="338" cy="127" r="2" fill="#C41E3A"/>
    <circle cx="338" cy="141" r="2" fill="#C41E3A"/>
    <circle cx="338" cy="155" r="2" fill="#D4A017"/>
    <line x1="368" y1="115" x2="368" y2="168" stroke="#BAA878" stroke-width="1.5"/>

    <!-- Panel 4 -->
    <polygon points="368,115 402,118 402,171 368,168" fill="#FFF2D9" stroke="#D4C5A0" stroke-width="0.5"/>
    <line x1="375" y1="124" x2="396" y2="127" stroke="#C8B89A" stroke-width="0.8"/>
    <line x1="375" y1="131" x2="393" y2="134" stroke="#C8B89A" stroke-width="0.8"/>
    <line x1="375" y1="138" x2="396" y2="141" stroke="#C8B89A" stroke-width="0.8"/>
    <line x1="375" y1="145" x2="390" y2="148" stroke="#C8B89A" stroke-width="0.8"/>
    <line x1="375" y1="152" x2="395" y2="155" stroke="#C8B89A" stroke-width="0.8"/>
    <circle cx="372" cy="125" r="2" fill="#D4A017"/>
    <circle cx="372" cy="139" r="2" fill="#D4A017"/>
    <circle cx="372" cy="153" r="2" fill="#C41E3A"/>
    <line x1="402" y1="118" x2="402" y2="171" stroke="#BAA878" stroke-width="1" opacity="0.7"/>

    <!-- Panel 5 (fading) -->
    <g opacity="0.65">
      <polygon points="402,118 436,115 436,168 402,171" fill="#FFF8E7" stroke="#D4C5A0" stroke-width="0.5"/>
      <line x1="409" y1="127" x2="430" y2="125" stroke="#C8B89A" stroke-width="0.8"/>
      <line x1="409" y1="134" x2="427" y2="132" stroke="#C8B89A" stroke-width="0.8"/>
      <line x1="409" y1="141" x2="430" y2="139" stroke="#C8B89A" stroke-width="0.8"/>
      <line x1="409" y1="148" x2="424" y2="146" stroke="#C8B89A" stroke-width="0.8"/>
      <circle cx="406" cy="127" r="2" fill="#C41E3A"/>
      <circle cx="406" cy="141" r="2" fill="#D4A017"/>
    </g>
    <line x1="436" y1="115" x2="436" y2="168" stroke="#BAA878" stroke-width="1" opacity="0.45"/>

    <!-- Panel 6 (more faded) -->
    <g opacity="0.35">
      <polygon points="436,115 470,118 470,171 436,168" fill="#FFF2D9" stroke="#D4C5A0" stroke-width="0.5"/>
      <line x1="443" y1="124" x2="464" y2="127" stroke="#C8B89A" stroke-width="0.8"/>
      <line x1="443" y1="131" x2="461" y2="134" stroke="#C8B89A" stroke-width="0.8"/>
      <line x1="443" y1="138" x2="464" y2="141" stroke="#C8B89A" stroke-width="0.8"/>
      <circle cx="440" cy="125" r="2" fill="#D4A017"/>
      <circle cx="440" cy="139" r="2" fill="#C41E3A"/>
    </g>

    <!-- Panel 7 (trailing off) -->
    <g opacity="0.15">
      <polygon points="470,118 500,115 500,168 470,171" fill="#FFF8E7"/>
      <line x1="477" y1="127" x2="494" y2="125" stroke="#C8B89A" stroke-width="0.8"/>
      <line x1="477" y1="134" x2="492" y2="132" stroke="#C8B89A" stroke-width="0.8"/>
    </g>
  </g>

  <!-- Right hand + cuff -->
  <ellipse cx="260" cy="150" rx="14" ry="10" fill="#FFFFFF" transform="rotate(-20,260,150)"/>
  <ellipse cx="262" cy="146" rx="10" ry="8" fill="#F0C8A0"/>
  <ellipse cx="268" cy="138" rx="4" ry="6" fill="#E8BC94" transform="rotate(20,268,138)"/>

  <!-- Head -->
  <circle cx="170" cy="150" r="36" fill="#F0C8A0"/>

  <!-- Periwig sideburns — left -->
  <ellipse cx="132" cy="148" rx="7" ry="14" fill="#4A3728"/>
  <circle cx="127" cy="155" r="6" fill="#3D2E1F"/>
  <circle cx="130" cy="165" r="5" fill="#4A3728"/>
  <circle cx="126" cy="143" r="4.5" fill="#3D2E1F"/>
  <circle cx="132" cy="173" r="4" fill="#3D2E1F"/>

  <!-- Periwig sideburns — right -->
  <ellipse cx="208" cy="148" rx="7" ry="14" fill="#4A3728"/>
  <circle cx="213" cy="155" r="6" fill="#3D2E1F"/>
  <circle cx="210" cy="165" r="5" fill="#4A3728"/>
  <circle cx="214" cy="143" r="4.5" fill="#3D2E1F"/>
  <circle cx="208" cy="173" r="4" fill="#3D2E1F"/>

  <!-- Hair top (under hat) -->
  <path d="M140,132 C140,120 153,112 170,112 C187,112 200,120 200,132 L200,137 L140,137 Z" fill="#4A3728"/>

  <!-- Face — eyebrows -->
  <path d="M149,138 Q157,133 164,137" stroke="#4A3728" stroke-width="2.5" stroke-linecap="round" fill="none"/>
  <path d="M176,137 Q183,133 191,138" stroke="#4A3728" stroke-width="2.5" stroke-linecap="round" fill="none"/>

  <!-- Face — eyes -->
  <ellipse cx="157" cy="147" rx="5" ry="5.5" fill="#2C2C2C"/>
  <ellipse cx="183" cy="147" rx="5" ry="5.5" fill="#2C2C2C"/>
  <circle cx="159" cy="145" r="2" fill="#FFFFFF"/>
  <circle cx="185" cy="145" r="2" fill="#FFFFFF"/>

  <!-- Face — nose -->
  <path d="M167,151 Q170,157 173,151" stroke="#D4A87A" stroke-width="1.8" fill="none" stroke-linecap="round"/>

  <!-- Face — rosy cheeks -->
  <ellipse cx="148" cy="157" rx="9" ry="5.5" fill="#E88B8B" opacity="0.35"/>
  <ellipse cx="192" cy="157" rx="9" ry="5.5" fill="#E88B8B" opacity="0.35"/>

  <!-- Face — proud smile -->
  <path d="M158,163 Q170,174 182,163" stroke="#A0674A" stroke-width="2.2" stroke-linecap="round" fill="none"/>
  <path d="M162,164 Q170,171 178,164" fill="#FFFFFF" opacity="0.5"/>

  <!-- Tricorn hat -->
  <path d="M124,132 L170,88 L216,132 Z" fill="#2B2B35"/>
  <path d="M120,132 L220,132 L214,124 L126,124 Z" fill="#222230"/>
  <line x1="122" y1="132" x2="218" y2="132" stroke="#C8A951" stroke-width="2.5"/>
  <!-- Cockade -->
  <circle cx="170" cy="109" r="6" fill="#C8A951"/>
  <circle cx="170" cy="109" r="4" fill="#C41E3A"/>
  <circle cx="170" cy="109" r="1.5" fill="#D4A017"/>

</svg>
